<svg width="31" height="32" viewBox="0 0 31 32" fill="none" xmlns="http://www.w3.org/2000/svg">
<path d="M12.2133 15.4484C12.7438 18.9781 11.7719 20.9079 9.0274 21.3138C5.97759 21.7648 4.72094 19.7217 4.19046 16.192C3.47693 11.4424 5.15387 8.48832 7.54495 8.29805C9.72106 8.12524 11.6822 11.9193 12.2133 15.4484Z" stroke="black" stroke-width="1.92683" stroke-miterlimit="10"/>
<path d="M13.6375 25.2446C13.826 27.2485 12.7428 29.1187 11.1086 29.439C9.45873 29.7618 7.57345 28.4533 7.18929 26.4771C6.80513 24.5009 8.25808 24.3961 10.0386 24.0559C11.8191 23.7157 13.4099 22.8276 13.6375 25.2446Z" stroke="black" stroke-width="1.92683" stroke-miterlimit="10"/>
<path d="M18.9572 9.66727C18.4267 13.197 19.3985 15.1268 22.1424 15.5327C25.1929 15.9837 26.4489 13.9406 26.9794 10.4109C27.6935 5.66067 26.016 2.69035 23.6255 2.51693C21.4337 2.35797 19.4882 6.13756 18.9572 9.66727Z" stroke="black" stroke-width="1.92683" stroke-miterlimit="10"/>
<path d="M17.5332 19.4641C17.3447 21.4674 18.428 23.3382 20.0622 23.6585C21.712 23.9813 23.5973 22.6728 23.9815 20.6966C24.3656 18.7204 22.9127 18.6157 21.1322 18.2749C19.3517 17.9341 17.7608 17.0465 17.5332 19.4641V19.4641Z" stroke="black" stroke-width="1.92683" stroke-miterlimit="10"/>
</svg>
