<?xml version="1.0" standalone="no"?>
<!DOCTYPE svg PUBLIC "-//W3C//DTD SVG 20010904//EN"
 "http://www.w3.org/TR/2001/REC-SVG-20010904/DTD/svg10.dtd">
<svg version="1.0" xmlns="http://www.w3.org/2000/svg"
 width="600.000000pt" height="450.000000pt" viewBox="0 0 600.000000 450.000000"
 preserveAspectRatio="xMidYMid meet">

<g transform="translate(0.000000,450.000000) scale(0.100000,-0.100000)"
fill="#000000" stroke="none">
<path d="M4643 3630 c-47 -19 -56 -78 -18 -115 30 -30 64 -32 99 -4 66 52 -2
152 -81 119z m81 -54 c7 -18 6 -30 -2 -38 -17 -17 -36 10 -21 29 15 18 2 33
-29 33 -20 0 -23 3 -13 9 22 14 55 -3 65 -33z m-82 -16 c2 -22 2 -40 1 -40
-10 0 -23 45 -18 60 9 29 12 25 17 -20z m48 -41 c0 -5 -7 -9 -15 -9 -15 0 -20
12 -9 23 8 8 24 -1 24 -14z"/>
<path d="M1473 3332 c-61 -163 -178 -470 -258 -682 -81 -212 -153 -402 -161
-422 l-13 -38 172 0 172 0 115 304 c134 355 129 357 102 -37 -9 -142 -15 -260
-13 -263 2 -2 86 -4 185 -4 l181 0 37 98 c60 159 496 1306 503 1325 7 16 -5
17 -166 17 l-174 0 -119 -315 c-65 -174 -120 -314 -121 -313 -1 2 6 120 16
263 10 143 18 284 18 313 l1 52 -182 0 -183 0 -112 -298z"/>
<path d="M2438 3348 c-104 -277 -419 -1106 -433 -1141 -7 -16 3 -17 166 -15
l173 3 28 70 c28 71 436 1145 489 1288 l28 77 -172 0 -172 0 -107 -282z"/>
<path d="M2935 3598 c-20 -51 -517 -1371 -523 -1391 -4 -16 7 -17 168 -15
l172 3 111 292 112 292 7 -82 c3 -45 7 -154 7 -242 1 -88 4 -184 7 -212 l7
-53 229 -2 230 -3 -289 -77 c-158 -42 -575 -154 -925 -248 -351 -93 -673 -175
-715 -181 -159 -22 -342 13 -459 89 -170 110 -242 302 -204 541 13 79 64 240
97 304 13 27 23 51 20 53 -4 4 -137 -160 -229 -281 -90 -119 -224 -332 -288
-460 -160 -315 -196 -563 -110 -741 60 -124 226 -245 406 -295 151 -43 370
-29 595 40 227 69 332 113 3639 1528 366 156 672 291 680 299 12 12 11 14 -10
14 -13 0 -303 -75 -644 -166 -907 -243 -906 -243 -906 -233 0 5 7 26 15 46 8
19 15 39 15 44 0 5 -88 9 -195 9 -107 0 -195 3 -195 8 0 4 28 82 62 175 l62
167 166 0 166 0 50 133 51 132 -164 3 c-90 1 -163 4 -163 6 0 2 24 68 54 147
l54 144 175 3 176 2 41 108 c23 59 44 113 47 120 4 10 -102 12 -523 10 l-528
-3 -170 -202 c-93 -112 -171 -201 -173 -200 -1 2 31 90 72 196 41 107 75 197
75 202 0 5 -77 9 -171 9 l-170 0 -14 -32z m651 -657 l-243 -642 -7 128 c-3 70
-8 238 -11 373 l-6 245 253 272 c139 149 254 271 255 269 2 -1 -107 -292 -241
-645z"/>
</g>
</svg>
