<?xml version="1.0" standalone="no"?>
<!DOCTYPE svg PUBLIC "-//W3C//DTD SVG 20010904//EN"
 "http://www.w3.org/TR/2001/REC-SVG-20010904/DTD/svg10.dtd">
<svg version="1.0" xmlns="http://www.w3.org/2000/svg"
 width="880.000000pt" height="861.000000pt" viewBox="0 0 880.000000 861.000000"
 preserveAspectRatio="xMidYMid meet">

<g transform="translate(0.000000,861.000000) scale(0.100000,-0.100000)"
fill="#000000" stroke="none">
<path d="M7299 8177 c-172 -71 -375 -222 -490 -365 -140 -173 -246 -363 -374
-672 -152 -367 -224 -489 -372 -631 -200 -193 -368 -269 -595 -269 -354 0
-742 196 -1277 646 -85 71 -218 182 -295 248 -554 466 -1052 742 -1501 831
-71 14 -139 32 -152 40 -14 9 -29 36 -38 70 -15 51 -59 105 -86 105 -24 0 -69
-32 -88 -63 -30 -48 -64 -64 -98 -46 -14 8 -35 28 -47 46 -23 35 -71 67 -86
58 -6 -3 -35 -48 -65 -99 -57 -97 -100 -143 -178 -188 -55 -32 -82 -73 -92
-137 -6 -40 -16 -55 -72 -109 -123 -121 -116 -168 42 -272 28 -18 77 -59 111
-91 34 -32 74 -61 90 -65 16 -4 59 -2 96 4 136 24 246 6 300 -48 23 -23 28
-37 28 -77 0 -60 -27 -108 -67 -116 -15 -3 -103 -1 -195 5 -263 16 -389 -9
-489 -100 -91 -82 -123 -195 -80 -280 42 -81 137 -141 222 -142 64 0 94 25
109 92 7 29 19 63 26 76 29 45 110 25 408 -103 202 -87 294 -113 421 -121 148
-10 266 27 370 117 28 23 57 49 67 57 14 11 22 11 55 -7 61 -30 138 -95 261
-219 187 -186 309 -274 494 -354 169 -73 337 -108 638 -133 440 -37 573 -76
719 -212 90 -82 156 -187 257 -404 163 -352 254 -509 394 -683 122 -151 300
-317 476 -444 l71 -51 6 -190 c7 -209 23 -301 67 -396 58 -123 149 -191 268
-202 99 -9 102 -5 102 147 0 106 4 141 21 191 30 87 23 128 -44 246 -63 112
-73 144 -83 265 -8 108 -23 133 -111 195 -93 65 -142 117 -181 190 -45 85 -60
175 -72 426 -12 258 -17 316 -36 432 -36 212 -88 364 -165 475 -28 40 -57 87
-65 103 -15 29 -15 30 23 69 21 22 72 63 113 92 168 119 255 245 398 577 150
347 217 462 355 606 98 102 188 162 431 289 216 113 271 156 309 241 70 157
52 309 -43 358 -44 23 -145 19 -211 -8z"/>
<path d="M508 3003 l-98 -4 0 -1118 0 -1118 83 -6 c104 -9 416 -7 482 1 l50 7
6 185 c4 102 7 226 8 276 l1 92 323 5 c201 3 336 9 358 16 61 19 103 53 128
105 l24 49 2 581 c2 756 -3 820 -70 878 -60 52 -59 52 -650 53 -302 1 -594 0
-647 -2z m704 -302 l33 -29 3 -496 c2 -431 1 -500 -13 -526 -23 -44 -65 -61
-137 -58 l-61 3 -2 568 -1 567 73 0 c66 0 76 -3 105 -29z"/>
<path d="M2143 3003 l-63 -4 -2 -922 c-4 -1250 -6 -1192 47 -1256 51 -60 60
-61 694 -61 537 0 579 2 616 19 49 22 91 69 105 119 8 25 10 359 8 1072 l-3
1035 -312 3 -313 2 -2 -961 -3 -961 -33 -29 c-39 -35 -82 -38 -129 -9 -18 11
-34 21 -35 22 -2 2 -5 437 -8 968 l-5 965 -250 1 c-137 0 -278 -1 -312 -3z"/>
<path d="M3945 3003 c-75 -17 -99 -27 -129 -54 -41 -35 -64 -98 -67 -184 -2
-33 -2 -498 -1 -1032 l2 -973 310 0 310 0 0 945 c0 1051 -4 992 67 1021 43 19
93 5 123 -33 20 -25 20 -38 20 -979 l0 -954 315 0 315 0 0 945 c0 1051 -4 992
67 1021 43 19 93 5 123 -33 20 -25 20 -38 20 -979 l0 -954 314 0 314 0 4 1018
c2 559 -1 1036 -5 1059 -18 89 -79 144 -180 162 -62 11 -1876 15 -1922 4z"/>
<path d="M6454 3000 c-111 -17 -148 -40 -180 -115 -16 -37 -17 -116 -17 -965
1 -509 1 -978 2 -1042 l1 -118 315 0 315 0 0 280 0 281 103 -3 102 -3 3 -278
2 -277 310 0 310 0 3 903 c3 1301 7 1219 -57 1283 -57 57 -63 58 -636 60 -289
1 -548 -1 -576 -6z m611 -301 l30 -29 0 -533 0 -532 -105 0 -105 0 0 532 0
532 29 30 c46 48 101 48 151 0z"/>
<path d="M8136 1136 c-44 -17 -91 -58 -113 -101 -33 -63 -11 -178 44 -227 78
-71 217 -60 286 22 52 61 59 132 21 208 -43 87 -149 131 -238 98z m141 -36
c93 -42 122 -172 56 -250 -69 -82 -199 -84 -262 -4 -52 66 -51 150 2 211 56
64 126 79 204 43z"/>
<path d="M8110 950 c0 -93 1 -100 20 -100 17 0 20 7 20 45 0 25 3 45 6 45 17
0 45 -24 64 -55 15 -24 29 -35 46 -35 31 0 30 8 -6 52 -29 36 -30 37 -11 47
28 16 35 48 17 76 -15 23 -23 25 -86 25 l-70 0 0 -100z m115 45 c0 -16 -8 -21
-37 -23 -35 -3 -38 -1 -38 23 0 24 3 26 38 23 29 -2 37 -7 37 -23z"/>
</g>
</svg>
