<?xml version="1.0" standalone="no"?>
<!DOCTYPE svg PUBLIC "-//W3C//DTD SVG 20010904//EN"
 "http://www.w3.org/TR/2001/REC-SVG-20010904/DTD/svg10.dtd">
<svg version="1.0" xmlns="http://www.w3.org/2000/svg"
 width="550.000000pt" height="551.000000pt" viewBox="0 0 550.000000 551.000000"
 preserveAspectRatio="xMidYMid meet">

<g transform="translate(0.000000,551.000000) scale(0.100000,-0.100000)"
fill="#000000" stroke="none">
<path d="M5175 4217 c-75 -35 -165 -116 -214 -191 -24 -36 -69 -126 -101 -200
-67 -156 -120 -236 -190 -290 -87 -66 -161 -80 -273 -51 -135 35 -265 113
-427 255 -184 161 -326 263 -467 334 -71 35 -198 76 -239 76 -14 0 -26 10 -34
30 -21 51 -37 57 -70 25 l-30 -29 -29 28 -28 27 -31 -50 c-17 -28 -45 -57 -62
-66 -20 -10 -33 -26 -36 -45 -4 -15 -19 -41 -35 -56 -16 -15 -29 -35 -29 -45
0 -9 26 -38 57 -65 l57 -49 74 0 c79 0 102 -13 102 -61 0 -37 -21 -46 -78 -34
-57 13 -141 2 -192 -25 -32 -17 -60 -61 -60 -95 0 -32 53 -80 88 -80 33 0 46
12 56 52 7 32 18 31 138 -24 147 -66 254 -69 330 -8 l38 31 87 -81 c157 -147
267 -193 496 -209 103 -8 133 -14 175 -35 70 -35 118 -98 170 -218 66 -155
176 -301 300 -399 l62 -49 0 -78 c0 -139 40 -210 123 -219 l44 -5 6 93 c5 82
3 98 -15 129 -11 19 -24 61 -28 93 -8 54 -13 62 -69 116 -33 32 -62 69 -65 82
-2 13 -7 78 -10 144 -9 176 -40 295 -98 378 -11 16 -8 22 27 50 54 44 101 95
119 132 8 16 44 92 80 167 80 167 128 221 258 286 88 44 134 80 149 120 23 59
0 115 -51 127 -15 3 -44 -4 -75 -18z"/>
<path d="M460 2415 l0 -585 160 0 160 0 0 144 0 145 186 3 186 3 29 33 29 32
0 366 c0 398 -1 408 -57 433 -16 7 -139 11 -358 11 l-335 0 0 -585z m408 429
c22 -15 22 -18 22 -281 0 -298 1 -292 -72 -293 l-38 0 0 295 0 295 33 0 c18 0
43 -7 55 -16z"/>
<path d="M1320 2446 l0 -554 29 -31 29 -31 312 0 c317 0 339 2 367 39 9 12 12
151 13 574 l0 557 -160 0 -160 0 0 -498 c0 -471 -1 -500 -18 -515 -25 -22 -48
-21 -72 3 -19 19 -20 33 -20 515 l0 495 -160 0 -160 0 0 -554z"/>
<path d="M2218 2971 l-33 -29 -3 -556 -2 -556 165 0 165 0 0 505 c0 488 1 505
19 515 27 14 47 13 65 -6 14 -14 16 -74 16 -515 l0 -499 163 0 163 0 -1 488
c0 273 4 496 9 507 5 11 14 23 20 28 14 9 59 -1 68 -16 4 -7 8 -236 8 -509 l0
-498 165 0 165 0 0 535 c0 588 0 589 -59 619 -26 14 -97 16 -545 16 l-516 0
-32 -29z"/>
<path d="M3524 2981 c-17 -11 -36 -34 -43 -52 -8 -22 -11 -195 -11 -565 l0
-534 165 0 165 0 0 145 0 145 55 0 56 0 -6 -145 -7 -145 166 0 166 0 0 540 c0
593 1 583 -60 615 -24 12 -80 15 -322 15 -270 0 -295 -2 -324 -19z m360 -137
c18 -17 18 -19 21 -351 l2 -223 -56 0 -56 0 3 277 c2 239 5 280 19 295 20 22
47 23 67 2z"/>
<path d="M4389 2086 c-46 -31 -63 -72 -57 -137 12 -120 158 -168 243 -79 38
40 47 128 17 176 -41 64 -139 83 -203 40z m155 -27 c41 -35 53 -81 37 -132
-16 -49 -44 -69 -98 -74 -121 -10 -179 126 -87 206 48 43 100 43 148 0z"/>
<path d="M4420 1965 c0 -69 3 -85 15 -85 10 0 15 10 15 33 l1 32 27 -33 c27
-32 52 -42 52 -20 0 6 -10 22 -21 34 -20 21 -20 24 -5 39 22 22 20 62 -3 75
-11 5 -33 10 -50 10 l-31 0 0 -85z m65 35 c0 -8 -8 -16 -17 -18 -13 -2 -18 3
-18 18 0 15 5 20 18 18 9 -2 17 -10 17 -18z"/>
</g>
</svg>
